<svg width="154" height="132" viewBox="0 0 154 132" fill="none" xmlns="http://www.w3.org/2000/svg">
<path d="M149.512 6.70781C146.016 2.44594 140.842 0 135.338 0C131.089 0 126.934 1.49537 123.651 4.22988L93.5636 29.2028L86.9868 21.2024C85.0744 18.8739 82.2588 17.5495 79.2628 17.5495C76.9466 17.5495 74.6835 18.3613 72.8987 19.8567C70.8375 21.5657 69.5625 23.9796 69.3076 26.6607C69.0526 29.3418 69.8495 31.948 71.5494 34.0202L78.1262 42.0205L46.072 68.6278L19.0429 91.0585C16.5567 93.1307 14.1236 96.2496 12.1794 99.8385C10.8938 102.22 9.31073 105.788 8.65196 109.783L4.57209 113.105L4.55084 113.126C0.0461214 116.864 -0.591424 123.594 3.12713 128.123C5.14583 130.579 8.13123 132 11.3081 132C13.7518 132 16.1422 131.135 18.0336 129.565L22.1241 126.221C22.3578 126.232 22.6022 126.232 22.8466 126.232C29.6039 126.232 37.6573 123.466 42.4172 119.524L101.502 70.485L108.079 78.4854C109.991 80.8139 112.796 82.1383 115.803 82.1383C118.119 82.1383 120.382 81.3265 122.167 79.8312C124.228 78.1221 125.503 75.7082 125.758 73.0378C126.013 70.3673 125.216 67.7505 123.516 65.6783L116.939 57.678L147.027 32.705C150.809 29.5648 153.147 25.1321 153.614 20.2292C154.103 15.3051 152.646 10.5103 149.512 6.70781ZM56.1098 100.233L20.4952 98.2785C21.3027 97.2745 22.1314 96.42 22.9176 95.7577L49.9468 73.327L82.001 46.7197L97.6405 65.7644L65.5754 92.3717L56.1098 100.233Z" fill="white"/>
</svg>
